<?xml version="1.0" encoding="UTF-8" standalone="no"?>
<svg
   enable-background="new 0 0 580 580"
   height="580"
   viewBox="0 0 580 580"
   width="580"
   version="1.1"
   id="svg4"
   sodipodi:docname="OBST.svg"
   inkscape:version="1.4 (86a8ad7, 2024-10-11)"
   xmlns:inkscape="http://www.inkscape.org/namespaces/inkscape"
   xmlns:sodipodi="http://sodipodi.sourceforge.net/DTD/sodipodi-0.dtd"
   xmlns="http://www.w3.org/2000/svg"
   xmlns:svg="http://www.w3.org/2000/svg">
  <defs
     id="defs4">
    <inkscape:path-effect
       effect="bend_path"
       id="path-effect16"
       is_visible="true"
       lpeversion="1"
       bendpath="m 155.98428,133.70081 c -9.53372,53.91064 -19.06745,107.82127 -35.4387,166.45984 C 104.17433,358.79922 79.145914,423.456 54.116995,488.11407"
       prop_scale="1"
       scale_y_rel="false"
       vertical="false"
       hide_knot="false" />
    <inkscape:path-effect
       effect="bspline"
       id="path-effect14"
       is_visible="true"
       lpeversion="1.3"
       weight="33.333333"
       steps="2"
       helper_size="0"
       apply_no_weight="true"
       apply_with_weight="true"
       only_selected="false"
       uniform="false" />
    <inkscape:path-effect
       effect="bend_path"
       id="path-effect13"
       is_visible="true"
       lpeversion="1"
       bendpath="m 155.98428,133.70081 c -6.36671,54.4707 -12.73341,108.9414 -29.71157,168.01091 -16.97816,59.06952 -44.566661,122.7353 -72.155715,186.40235"
       prop_scale="1"
       scale_y_rel="false"
       vertical="false"
       hide_knot="false" />
    <inkscape:path-effect
       effect="bspline"
       id="path-effect12"
       is_visible="true"
       lpeversion="1.3"
       weight="33.333333"
       steps="2"
       helper_size="0"
       apply_no_weight="true"
       apply_with_weight="true"
       only_selected="false"
       uniform="false" />
    <inkscape:path-effect
       effect="bspline"
       id="path-effect11"
       is_visible="true"
       lpeversion="1.3"
       weight="33.333333"
       steps="2"
       helper_size="0"
       apply_no_weight="true"
       apply_with_weight="true"
       only_selected="false"
       uniform="false" />
    <inkscape:path-effect
       effect="bspline"
       id="path-effect9"
       is_visible="true"
       lpeversion="1.3"
       weight="33.333333"
       steps="2"
       helper_size="0"
       apply_no_weight="true"
       apply_with_weight="true"
       only_selected="false"
       uniform="false" />
    <inkscape:path-effect
       effect="bspline"
       id="path-effect8"
       is_visible="true"
       lpeversion="1.3"
       weight="33.333333"
       steps="2"
       helper_size="0"
       apply_no_weight="true"
       apply_with_weight="true"
       only_selected="false"
       uniform="false" />
    <inkscape:path-effect
       effect="bspline"
       id="path-effect7"
       is_visible="true"
       lpeversion="1.3"
       weight="33.333333"
       steps="2"
       helper_size="0"
       apply_no_weight="true"
       apply_with_weight="true"
       only_selected="false"
       uniform="false" />
    <inkscape:path-effect
       effect="bspline"
       id="path-effect6"
       is_visible="true"
       lpeversion="1.3"
       weight="33.333333"
       steps="2"
       helper_size="0"
       apply_no_weight="true"
       apply_with_weight="true"
       only_selected="false"
       uniform="false" />
    <inkscape:path-effect
       effect="bspline"
       id="path-effect5"
       is_visible="true"
       lpeversion="1.3"
       weight="33.333333"
       steps="2"
       helper_size="0"
       apply_no_weight="true"
       apply_with_weight="true"
       only_selected="false"
       uniform="false" />
  </defs>
  <sodipodi:namedview
     id="namedview4"
     pagecolor="#ffffff"
     bordercolor="#000000"
     borderopacity="0.25"
     inkscape:showpageshadow="2"
     inkscape:pageopacity="0.0"
     inkscape:pagecheckerboard="0"
     inkscape:deskcolor="#d1d1d1"
     inkscape:lockguides="false"
     showguides="true"
     inkscape:zoom="0.94240266"
     inkscape:cx="344.8632"
     inkscape:cy="265.80995"
     inkscape:window-width="1920"
     inkscape:window-height="991"
     inkscape:window-x="-9"
     inkscape:window-y="-9"
     inkscape:window-maximized="1"
     inkscape:current-layer="svg4" />
  <g
     id="g30">
    <ellipse
       style="fill:#1a1a1a;stroke-width:5.37309"
       id="path23"
       cx="264.33011"
       cy="536.12964"
       rx="15.518845"
       ry="15.120925" />
    <path
       d="M 485.01622,529.09925 C 394.43057,440.30467 345.07035,312.95699 319.61223,221.75993 294.6988,132.51675 286.45202,57.914 284.5125,29.676128 V 19.669945 c 0,-2.598118 -1.09958,-5.004336 -2.96783,-6.993112 C 278.62266,9.1678155 273.39631,6.80521 267.40127,6.7566121 258.10922,6.7042762 250.40373,12.234467 250.40373,19.09674 V 30.248088 C 248.46422,58.485959 240.21743,133.08871 215.304,222.33188 189.84588,313.52895 140.48566,440.87662 49.900009,529.67121 c -5.56573,5.45544 -4.055517,13.19122 3.373375,17.27718 3.022124,1.6623 6.558399,2.46603 10.064129,2.46603 5.112667,0 10.162549,-1.70715 13.464655,-4.94328 22.368123,-21.92637 43.302392,-47.00413 62.672152,-74.9529 1.86996,-0.40624 3.64488,-1.12024 5.17036,-2.15825 l 122.88725,-83.53604 122.88894,83.53604 c 1.60524,1.09283 3.48538,1.82803 5.46053,2.22055 19.24758,27.69457 40.03253,52.55925 62.23097,74.31865 3.30041,3.23736 8.35029,4.94328 13.46465,4.94328 3.50404,0 7.04201,-0.80374 10.06413,-2.46604 7.43059,-4.08596 8.9425,-11.82175 3.37507,-17.27718 z M 233.8406,274.46871 l 18.33806,12.46598 -29.86659,20.30271 c 3.99782,-10.72394 7.84123,-21.64974 11.52853,-32.76869 z m 33.98658,23.10393 44.54621,30.28148 c -1.26756,0.41744 -2.47064,0.98192 -3.54646,1.71463 l -41.29161,28.0684 -41.28991,-28.0684 c -0.96552,-0.65545 -2.03115,-1.1813 -3.15448,-1.58379 z m 44.8177,9.18874 -29.16748,-19.82669 17.89519,-12.16443 c 3.60924,10.85105 7.3695,21.51766 11.27229,31.99112 z m -45.12652,-160.2123 c 4.94298,24.6466 11.22139,51.70442 19.16783,80.16783 2.88807,10.34637 5.91359,20.54321 9.05788,30.60422 l -27.91519,18.97561 -28.37504,-19.28838 c 3.04418,-9.77441 5.97977,-19.67343 8.783,-29.717 8.00751,-28.68646 14.32157,-55.9424 19.28152,-80.74228 z M 167.06541,425.93464 c 6.37853,-11.04418 12.55005,-22.43851 18.49418,-34.19173 7.8565,-15.53762 15.338,-31.69954 22.42582,-48.43466 0.1612,0.12212 0.31222,0.24673 0.48191,0.36262 l 39.80684,27.06031 z m 119.73107,-55.20471 39.80855,-27.06031 c 0.19344,-0.13084 0.36822,-0.27414 0.54809,-0.41246 7.02334,16.54945 14.43017,32.53567 22.20692,47.9113 6.08667,12.03233 12.4126,23.68461 18.95403,34.97429 z"
       fill="rgba(21,29,18,0.8666666666666667)"
       fill-opacity="1"
       stroke="rgba(35,35,35,1.0)"
       stroke-opacity="1"
       stroke-width="1.45413"
       id="use30"
       style="display:inline"
       inkscape:transform-center-x="-3.603968"
       inkscape:transform-center-y="-211.15802" />
  </g>
</svg>
